<svg xmlns="http://www.w3.org/2000/svg"  viewBox="0 0 64 64" width="512px" height="512px"><radialGradient id="sxigWKek9KM66fmmR06M0a" cx="32" cy="32.5" r="30.751" gradientUnits="userSpaceOnUse" spreadMethod="reflect"><stop offset="0" stop-color="#b8efff"/><stop offset=".642" stop-color="#d4f6ff"/><stop offset="1" stop-color="#e5faff"/></radialGradient><path fill="url(#sxigWKek9KM66fmmR06M0a)" d="M60.357,47H57c-1.105,0-2-0.895-2-2c0-1.105,0.895-2,2-2h0.412 c1.139,0,2.202-0.721,2.497-1.821C60.355,39.516,59.096,38,57.5,38H42V27h14c2.335,0,4.22-2.028,3.979-4.41 c-0.21-2.075-2.082-3.59-4.168-3.59H46c-1.105,0-2-0.895-2-2c0-1.105,0.895-2,2-2h6.357c1.308,0,2.499-0.941,2.63-2.242 C55.137,11.261,53.966,10,52.5,10h-8C43.672,10,43,9.328,43,8.5S43.672,7,44.5,7h3.857c1.308,0,2.499-0.941,2.63-2.242 C51.137,3.261,49.966,2,48.5,2L15.643,2c-1.308,0-2.499,0.941-2.63,2.242C12.863,5.739,14.034,7,15.5,7H19c1.105,0,2,0.895,2,2 c0,1.105-0.895,2-2,2H6.189c-2.086,0-3.958,1.514-4.168,3.59C1.78,16.972,3.665,19,6,19h2.5c1.933,0,3.5,1.567,3.5,3.5 c0,1.933-1.567,3.5-3.5,3.5H5.189c-2.086,0-3.958,1.514-4.168,3.59C0.78,31.972,2.665,34,5,34h17v12H7.588 c-1.139,0-2.202,0.721-2.497,1.821C4.645,49.484,5.904,51,7.5,51H9c1.105,0,2,0.895,2,2c0,1.105-0.895,2-2,2H6.189 c-2.086,0-3.958,1.514-4.168,3.59C1.78,60.972,3.665,63,6,63h48.811c2.086,0,3.958-1.514,4.168-3.59C59.22,57.028,57.335,55,55,55 h-0.5c-0.828,0-1.5-0.672-1.5-1.5s0.672-1.5,1.5-1.5h6c1.466,0,2.637-1.261,2.487-2.758C62.857,47.941,61.665,47,60.357,47z"/><linearGradient id="sxigWKek9KM66fmmR06M0b" x1="32" x2="32" y1="58.586" y2="21.586" gradientUnits="userSpaceOnUse" spreadMethod="reflect"><stop offset="0" stop-color="#ff9757"/><stop offset="1" stop-color="#ffb65b"/><stop offset="1" stop-color="#ffb65b"/></linearGradient><path fill="url(#sxigWKek9KM66fmmR06M0b)" d="M54,19H10v33c0,2.209,1.791,4,4,4h36c2.209,0,4-1.791,4-4V19z"/><linearGradient id="sxigWKek9KM66fmmR06M0c" x1="21" x2="21" y1="74.039" y2="28.283" gradientUnits="userSpaceOnUse" spreadMethod="reflect"><stop offset="0" stop-color="#f9af70"/><stop offset="1" stop-color="#ffb37b"/></linearGradient><path fill="url(#sxigWKek9KM66fmmR06M0c)" d="M32,24.5L32,24.5c0-1.381-1.119-2.5-2.5-2.5H10v29h10c1.657,0,3-1.343,3-3v0 c0-1.657-1.343-3-3-3h-1c-1.657,0-3-1.343-3-3v0c0-1.657,1.343-3,3-3h4c1.657,0,3-1.343,3-3v0c0-1.657-1.343-3-3-3h-3 c-1.657,0-3-1.343-3-3v0c0-1.657,1.343-3,3-3h9.5C30.881,27,32,25.881,32,24.5z"/><linearGradient id="sxigWKek9KM66fmmR06M0d" x1="43.5" x2="43.5" y1="56" y2="39" gradientUnits="userSpaceOnUse" spreadMethod="reflect"><stop offset="0" stop-color="#ff8b67"/><stop offset=".847" stop-color="#ffa76a"/><stop offset="1" stop-color="#ffad6b"/><stop offset="1" stop-color="#ffad6b"/></linearGradient><path fill="url(#sxigWKek9KM66fmmR06M0d)" d="M54,52V39c-3.083,0-10.118,0-11.872,0c-1.451,0-2.786,0.972-3.068,2.395 C38.681,43.307,40.152,45,42,45h0.5c1.381,0,2.5,1.119,2.5,2.5c0,1.381-1.119,2.5-2.5,2.5h-6.369c-1.451,0-2.789,0.972-3.071,2.395 C32.681,54.307,34.152,56,36,56h14C52.209,56,54,54.209,54,52z"/><linearGradient id="sxigWKek9KM66fmmR06M0e" x1="32" x2="32" y1="22" y2="11" gradientUnits="userSpaceOnUse" spreadMethod="reflect"><stop offset="0" stop-color="#ffa241"/><stop offset=".926" stop-color="#ffaf6c"/><stop offset="1" stop-color="#ffb070"/><stop offset="1" stop-color="#ffb070"/></linearGradient><path fill="url(#sxigWKek9KM66fmmR06M0e)" d="M54,22H10c-1.657,0-3-1.343-3-3v-5c0-1.657,1.343-3,3-3h44c1.657,0,3,1.343,3,3v5 C57,20.657,55.657,22,54,22z"/><linearGradient id="sxigWKek9KM66fmmR06M0f" x1="32" x2="32" y1="24.65" y2="32.225" gradientUnits="userSpaceOnUse" spreadMethod="reflect"><stop offset="0" stop-color="#9097a2"/><stop offset=".278" stop-color="#7c8390"/><stop offset=".733" stop-color="#616876"/><stop offset="1" stop-color="#575e6d"/><stop offset="1" stop-color="#575e6d"/></linearGradient><path fill="url(#sxigWKek9KM66fmmR06M0f)" d="M37,32H27c-1.65,0-3-1.35-3-3v0c0-1.65,1.35-3,3-3h10c1.65,0,3,1.35,3,3v0 C40,30.65,38.65,32,37,32z"/></svg>